<svg width="26" height="30" viewBox="0 0 26 30" fill="none" xmlns="http://www.w3.org/2000/svg">
<path d="M25.3194 19.65L22.7167 16.9571V10.3217C22.7513 7.85769 21.9184 5.46399 20.3716 3.5826C18.8248 1.70121 16.6687 0.459174 14.3014 0.0858398C12.9275 -0.100329 11.5308 0.017127 10.2045 0.430371C8.87822 0.843615 7.65283 1.54314 6.6101 2.48228C5.56737 3.42142 4.73129 4.57857 4.15763 5.87653C3.58398 7.17449 3.28594 8.5834 3.28341 10.0093V16.9571L0.680738 19.65C0.353821 19.992 0.132128 20.4255 0.0433721 20.8965C-0.0453838 21.3674 0.00273572 21.8548 0.181715 22.2977C0.360694 22.7406 0.662592 23.1195 1.04967 23.3868C1.43674 23.6542 1.89182 23.7982 2.35802 23.8009H7.21634V24.3067C7.28388 25.8171 7.93056 27.2384 9.01468 28.259C10.0988 29.2797 11.5319 29.8166 13.0001 29.752C14.4682 29.8166 15.9013 29.2797 16.9854 28.259C18.0696 27.2384 18.7162 25.8171 18.7838 24.3067V23.8009H23.6421C24.1083 23.7982 24.5634 23.6542 24.9505 23.3868C25.3375 23.1195 25.6394 22.7406 25.8184 22.2977C25.9974 21.8548 26.0455 21.3674 25.9567 20.8965C25.868 20.4255 25.6463 19.992 25.3194 19.65ZM15.8919 24.3067C15.8117 25.0223 15.4663 25.6785 14.9276 26.1386C14.3889 26.5987 13.6984 26.8272 13.0001 26.7764C12.3017 26.8272 11.6112 26.5987 11.0725 26.1386C10.5338 25.6785 10.1884 25.0223 10.1082 24.3067V23.8009H15.8919V24.3067ZM3.61598 20.8253L5.32217 19.0698C5.5928 18.793 5.80752 18.4638 5.95393 18.1012C6.10035 17.7386 6.17557 17.3498 6.17527 16.9571V10.0093C6.17606 9.00562 6.38549 8.01375 6.78949 7.10024C7.1935 6.18673 7.78274 5.37271 8.51768 4.7128C9.24269 4.03688 10.1018 3.53114 11.0355 3.23059C11.9693 2.93003 12.9553 2.84184 13.9255 2.97211C15.5976 3.25148 17.1155 4.143 18.1995 5.48254C19.2835 6.82209 19.8607 8.51947 19.8248 10.2622V16.9571C19.8226 17.3487 19.8956 17.7369 20.0395 18.0995C20.1834 18.462 20.3955 18.7917 20.6635 19.0698L22.3841 20.8253H3.61598Z" fill="white"/>
</svg>
