<svg width="26" height="26" viewBox="0 0 26 26" fill="none" xmlns="http://www.w3.org/2000/svg">
<path d="M25.4465 20.0922L19.5006 14.1463C18.3277 12.9733 16.5759 12.7449 15.1643 13.4405L9.75159 8.02773V4.87452L3.25222 0L0.00253878 3.24968L4.87706 9.74905H8.03027L13.443 15.1618C12.7525 16.5734 12.9759 18.3252 14.1488 19.4981L20.0947 25.444C20.8361 26.1853 22.0344 26.1853 22.7706 25.444L25.4465 22.7681C26.1828 22.0268 26.1828 20.8284 25.4465 20.0922ZM16.845 11.4247C18.282 11.4247 19.6327 11.9832 20.6482 12.9987L21.6332 13.9838C22.4355 13.6334 23.1971 13.146 23.8572 12.4859C25.741 10.6021 26.3808 7.95157 25.7817 5.54477C25.67 5.08778 25.0962 4.93038 24.7611 5.2655L20.9833 9.04326L17.5356 8.46949L16.9618 5.02178L20.7396 1.24402C21.0747 0.908896 20.9122 0.335124 20.4502 0.218338C18.0434 -0.375745 15.3928 0.264037 13.5141 2.14276C12.067 3.58988 11.3866 5.49907 11.4221 7.40318L15.5909 11.5719C16.0021 11.4754 16.4287 11.4247 16.845 11.4247ZM11.5694 15.5883L8.69036 12.7093L0.952055 20.4527C-0.317352 21.7221 -0.317352 23.7785 0.952055 25.0479C2.22146 26.3174 4.2779 26.3174 5.54731 25.0479L11.8233 18.772C11.4374 17.7615 11.3206 16.6597 11.5694 15.5883ZM3.25222 23.9664C2.58197 23.9664 2.03359 23.418 2.03359 22.7478C2.03359 22.0725 2.5769 21.5291 3.25222 21.5291C3.92755 21.5291 4.47085 22.0725 4.47085 22.7478C4.47085 23.418 3.92755 23.9664 3.25222 23.9664Z" fill="black"/>
</svg>
