<svg width="32" height="32" viewBox="0 0 32 32" fill="none" xmlns="http://www.w3.org/2000/svg">
<path d="M27.4552 17.56C27.5152 17.06 27.5552 16.54 27.5552 16C27.5552 15.46 27.5152 14.94 27.4352 14.44L30.8152 11.8C31.1152 11.56 31.1952 11.12 31.0152 10.78L27.8152 5.24C27.6152 4.88 27.1952 4.76 26.8352 4.88L22.8552 6.48C22.0152 5.84 21.1352 5.32 20.1552 4.92L19.5552 0.68C19.4952 0.28 19.1552 0 18.7552 0H12.3552C11.9552 0 11.6352 0.28 11.5752 0.68L10.9752 4.92C9.99519 5.32 9.09519 5.86 8.27519 6.48L4.29519 4.88C3.93519 4.74 3.51519 4.88 3.31519 5.24L0.115191 10.78C-0.0848093 11.14 -0.00480902 11.56 0.315191 11.8L3.69519 14.44C3.61519 14.94 3.55519 15.48 3.55519 16C3.55519 16.52 3.59519 17.06 3.67519 17.56L0.295191 20.2C-0.0048095 20.44 -0.0848093 20.88 0.0951907 21.22L3.29519 26.76C3.49519 27.12 3.91519 27.24 4.27519 27.12L8.25519 25.52C9.09519 26.16 9.97519 26.68 10.9552 27.08L11.5552 31.32C11.6352 31.72 11.9552 32 12.3552 32H18.7552C19.1552 32 19.4952 31.72 19.5352 31.32L20.1352 27.08C21.1152 26.68 22.0152 26.14 22.8352 25.52L26.8152 27.12C27.1752 27.26 27.5952 27.12 27.7952 26.76L30.9952 21.22C31.1952 20.86 31.1152 20.44 30.7952 20.2L27.4552 17.56ZM15.5552 22C12.2552 22 9.55519 19.3 9.55519 16C9.55519 12.7 12.2552 10 15.5552 10C18.8552 10 21.5552 12.7 21.5552 16C21.5552 19.3 18.8552 22 15.5552 22Z" fill="white"/>
</svg>
