<svg width="164" height="165" viewBox="0 0 164 165" fill="none" xmlns="http://www.w3.org/2000/svg">
<g clip-path="url(#clip0_31_226)">
<path d="M15.7712 138.569L14.3268 132.873C11.7659 131.787 9.1458 130.847 6.47899 130.057L6.29669 132.704L5.55732 129.788C2.25001 128.842 0 128.426 0 128.426C0 128.426 3.03847 139.983 9.41354 148.819L16.8411 150.123L11.0708 150.955C11.8727 151.92 12.7345 152.834 13.6511 153.691C22.924 162.298 33.2523 166.247 36.7199 162.511C40.1875 158.775 35.4814 148.769 26.2086 140.163C23.3339 137.494 19.7228 135.353 16.1079 133.667L15.7712 138.569Z" fill="#F2F2F2"/>
<path d="M29.5073 132.382L31.2155 126.759C29.5844 124.506 27.8275 122.347 25.9532 120.292L24.4287 122.464L25.3032 119.585C22.9603 117.067 21.2493 115.548 21.2493 115.548C21.2493 115.548 17.8772 127.012 18.7668 137.87L24.4507 142.827L19.0801 140.556C19.268 141.797 19.5338 143.025 19.8758 144.232C23.3648 156.393 30.165 165.113 35.0644 163.707C39.9639 162.301 41.1075 151.303 37.6185 139.142C36.537 135.372 34.5523 131.672 32.3291 128.361L29.5073 132.382Z" fill="#F2F2F2"/>
<path d="M114.438 38.968H113.537V14.2859C113.537 12.4098 113.168 10.5522 112.45 8.81891C111.732 7.08567 110.68 5.51081 109.353 4.18424C108.027 2.85767 106.452 1.80538 104.718 1.08745C102.985 0.369514 101.128 0 99.2515 0H46.9574C43.1686 0 39.5349 1.50512 36.8558 4.18424C34.1767 6.86336 32.6716 10.497 32.6716 14.2859V149.696C32.6716 151.572 33.0411 153.43 33.759 155.163C34.4769 156.896 35.5292 158.471 36.8558 159.798C38.1824 161.124 39.7572 162.177 41.4905 162.895C43.2237 163.612 45.0814 163.982 46.9574 163.982H99.2515C103.04 163.982 106.674 162.477 109.353 159.798C112.032 157.119 113.537 153.485 113.537 149.696V56.5372H114.438L114.438 38.968Z" fill="#E6E6E6"/>
<path d="M99.8279 3.71536H93.0023C93.3162 4.48501 93.4361 5.32007 93.3512 6.14694C93.2664 6.97382 92.9795 7.76713 92.5158 8.457C92.0521 9.14687 91.4259 9.71212 90.6923 10.1029C89.9587 10.4938 89.1402 10.6982 88.309 10.6981H58.3503C57.5191 10.6981 56.7007 10.4936 55.9671 10.1028C55.2336 9.71193 54.6074 9.14668 54.1438 8.45682C53.6802 7.76696 53.3933 6.97367 53.3085 6.14683C53.2237 5.31999 53.3435 4.48498 53.6574 3.71536H47.2819C44.4524 3.71536 41.7388 4.83936 39.7381 6.84011C37.7373 8.84085 36.6133 11.5544 36.6133 14.3839V149.597C36.6133 152.427 37.7373 155.141 39.7381 157.141C41.7388 159.142 44.4524 160.266 47.2819 160.266H99.8279C102.657 160.266 105.371 159.142 107.372 157.141C109.372 155.141 110.496 152.427 110.496 149.597V14.3837C110.496 11.5543 109.372 8.84072 107.372 6.84003C105.371 4.83933 102.657 3.71536 99.8279 3.71536Z" fill="white"/>
<path d="M66.8592 57.5775C66.859 56.6324 67.1078 55.7038 67.5805 54.8854C68.0532 54.067 68.7332 53.3875 69.5519 52.9154C68.7336 52.4428 67.8052 52.1939 66.8602 52.1938C65.9151 52.1937 64.9867 52.4423 64.1682 52.9148C63.3498 53.3873 62.6701 54.0669 62.1975 54.8853C61.725 55.7037 61.4762 56.6321 61.4762 57.5772C61.4762 58.5222 61.725 59.4506 62.1975 60.269C62.6701 61.0874 63.3498 61.767 64.1682 62.2395C64.9867 62.712 65.9151 62.9606 66.8602 62.9605C67.8052 62.9604 68.7336 62.7115 69.5519 62.2389C68.7332 61.7669 68.0533 61.0875 67.5806 60.2692C67.1079 59.4509 66.859 58.5225 66.8592 57.5775Z" fill="#CCCCCC"/>
<path d="M73.6268 57.5775C73.6267 56.6323 73.8754 55.7038 74.3482 54.8854C74.8209 54.067 75.5009 53.3875 76.3196 52.9154C75.5013 52.4428 74.5729 52.1939 73.6279 52.1938C72.6828 52.1937 71.7544 52.4423 70.9359 52.9148C70.1174 53.3873 69.4378 54.0669 68.9652 54.8853C68.4926 55.7037 68.2439 56.6321 68.2439 57.5772C68.2439 58.5222 68.4926 59.4506 68.9652 60.269C69.4378 61.0874 70.1174 61.767 70.9359 62.2395C71.7544 62.712 72.6828 62.9606 73.6279 62.9605C74.5729 62.9604 75.5013 62.7115 76.3196 62.2389C75.5009 61.7669 74.821 61.0875 74.3483 60.2692C73.8755 59.4509 73.6267 58.5225 73.6268 57.5775Z" fill="#CCCCCC"/>
<path d="M80.2407 62.9607C83.2139 62.9607 85.6241 60.5504 85.6241 57.5773C85.6241 54.6041 83.2139 52.1939 80.2407 52.1939C77.2676 52.1939 74.8574 54.6041 74.8574 57.5773C74.8574 60.5504 77.2676 62.9607 80.2407 62.9607Z" fill="#8FE1D7"/>
<path d="M89.2377 74.3917H57.8622C57.5635 74.3914 57.2771 74.2726 57.0659 74.0614C56.8547 73.8501 56.7359 73.5638 56.7355 73.2651V41.8895C56.7359 41.5908 56.8547 41.3045 57.0659 41.0933C57.2771 40.8821 57.5635 40.7632 57.8622 40.7629H89.2377C89.5364 40.7632 89.8228 40.8821 90.034 41.0933C90.2452 41.3045 90.364 41.5908 90.3644 41.8895V73.2651C90.364 73.5638 90.2452 73.8501 90.034 74.0614C89.8228 74.2726 89.5364 74.3914 89.2377 74.3917ZM57.8622 41.2138C57.683 41.214 57.5111 41.2853 57.3844 41.412C57.2577 41.5387 57.1864 41.7105 57.1862 41.8898V73.2653C57.1864 73.4445 57.2577 73.6163 57.3844 73.7431C57.5111 73.8698 57.683 73.9411 57.8622 73.9412H89.2377C89.4169 73.9411 89.5888 73.8698 89.7155 73.7431C89.8422 73.6163 89.9135 73.4445 89.9137 73.2653V41.8898C89.9135 41.7105 89.8422 41.5387 89.7155 41.412C89.5888 41.2853 89.4169 41.214 89.2377 41.2138H57.8622Z" fill="#CCCCCC"/>
<path d="M96.2434 98.4426H48.1228V98.8933H96.2434V98.4426Z" fill="#CCCCCC"/>
<path d="M49.6425 95.6286C50.4818 95.6286 51.1622 94.9482 51.1622 94.1089C51.1622 93.2696 50.4818 92.5893 49.6425 92.5893C48.8032 92.5893 48.1228 93.2696 48.1228 94.1089C48.1228 94.9482 48.8032 95.6286 49.6425 95.6286Z" fill="#8FE1D7"/>
<path d="M96.2434 113.638H48.1228V114.089H96.2434V113.638Z" fill="#CCCCCC"/>
<path d="M49.6425 110.825C50.4818 110.825 51.1622 110.144 51.1622 109.305C51.1622 108.466 50.4818 107.785 49.6425 107.785C48.8032 107.785 48.1228 108.466 48.1228 109.305C48.1228 110.144 48.8032 110.825 49.6425 110.825Z" fill="#8FE1D7"/>
<path d="M95.3628 130.943H80.1554C79.8927 130.943 79.6408 130.838 79.4551 130.652C79.2693 130.467 79.1648 130.215 79.1645 129.952V124.622C79.1648 124.359 79.2693 124.107 79.4551 123.922C79.6408 123.736 79.8927 123.631 80.1554 123.631H95.3628C95.6255 123.631 95.8773 123.736 96.0631 123.922C96.2488 124.107 96.3533 124.359 96.3536 124.622V129.952C96.3533 130.215 96.2488 130.467 96.0631 130.652C95.8773 130.838 95.6255 130.943 95.3628 130.943Z" fill="#8FE1D7"/>
<path d="M54.5996 95.6286C55.4389 95.6286 56.1193 94.9482 56.1193 94.1089C56.1193 93.2696 55.4389 92.5893 54.5996 92.5893C53.7603 92.5893 53.0799 93.2696 53.0799 94.1089C53.0799 94.9482 53.7603 95.6286 54.5996 95.6286Z" fill="#8FE1D7"/>
<path d="M59.5567 95.6286C60.396 95.6286 61.0764 94.9482 61.0764 94.1089C61.0764 93.2696 60.396 92.5893 59.5567 92.5893C58.7174 92.5893 58.037 93.2696 58.037 94.1089C58.037 94.9482 58.7174 95.6286 59.5567 95.6286Z" fill="#8FE1D7"/>
<path d="M54.5996 110.825C55.4389 110.825 56.1193 110.144 56.1193 109.305C56.1193 108.466 55.4389 107.785 54.5996 107.785C53.7603 107.785 53.0799 108.466 53.0799 109.305C53.0799 110.144 53.7603 110.825 54.5996 110.825Z" fill="#8FE1D7"/>
<path d="M59.5567 110.825C60.396 110.825 61.0764 110.144 61.0764 109.305C61.0764 108.466 60.396 107.785 59.5567 107.785C58.7174 107.785 58.037 108.466 58.037 109.305C58.037 110.144 58.7174 110.825 59.5567 110.825Z" fill="#8FE1D7"/>
<path d="M163.387 164.491H5.30189C4.96347 164.491 4.68934 164.371 4.68934 164.223C4.68934 164.075 4.96347 163.954 5.30189 163.954H163.387C163.726 163.954 164 164.074 164 164.223C164 164.371 163.726 164.491 163.387 164.491Z" fill="#3F3D56"/>
<path d="M124.33 107.769C124.438 107.819 124.542 107.877 124.641 107.943L134.516 103.728L134.869 101.126L138.815 101.102L138.582 107.068L125.547 110.516C125.52 110.606 125.487 110.695 125.448 110.782C125.26 111.184 124.957 111.521 124.577 111.752C124.198 111.982 123.758 112.095 123.315 112.077C122.871 112.059 122.443 111.909 122.083 111.648C121.724 111.387 121.45 111.026 121.295 110.61C121.141 110.193 121.113 109.741 121.215 109.308C121.317 108.876 121.544 108.484 121.868 108.18C122.192 107.877 122.599 107.676 123.037 107.603C123.475 107.53 123.925 107.587 124.33 107.769Z" fill="#FFB8B8"/>
<path d="M140.25 161.836H137.55L136.266 151.424L140.25 151.425L140.25 161.836Z" fill="#FFB8B8"/>
<path d="M135.622 161.065H140.828V164.343H132.344C132.344 163.473 132.69 162.64 133.304 162.025C133.919 161.41 134.753 161.065 135.622 161.065Z" fill="#2F2E41"/>
<path d="M150.748 161.074L148.061 161.338L145.763 151.103L149.727 150.712L150.748 161.074Z" fill="#FFB8B8"/>
<path d="M146.067 160.76L151.248 160.249L151.569 163.511L143.126 164.343C143.084 163.915 143.127 163.482 143.252 163.07C143.377 162.658 143.582 162.275 143.855 161.942C144.128 161.61 144.464 161.334 144.843 161.131C145.223 160.928 145.639 160.802 146.067 160.76Z" fill="#2F2E41"/>
<path d="M141.001 90.083C143.988 90.083 146.409 87.6618 146.409 84.6752C146.409 81.6885 143.988 79.2673 141.001 79.2673C138.014 79.2673 135.593 81.6885 135.593 84.6752C135.593 87.6618 138.014 90.083 141.001 90.083Z" fill="#FFB8B8"/>
<path d="M136.947 159.731C136.715 159.731 136.49 159.65 136.313 159.501C136.135 159.352 136.015 159.145 135.975 158.917C134.578 151.161 130.011 125.801 129.902 125.098C129.899 125.082 129.898 125.066 129.898 125.049V123.158C129.898 123.09 129.92 123.022 129.96 122.966L130.563 122.121C130.592 122.081 130.629 122.047 130.673 122.023C130.717 121.999 130.765 121.986 130.815 121.984C134.254 121.822 145.519 121.35 146.064 122.03C146.61 122.713 146.417 124.784 146.373 125.192L146.375 125.234L151.436 157.599C151.475 157.858 151.412 158.121 151.259 158.333C151.106 158.544 150.875 158.687 150.618 158.73L147.457 159.251C147.221 159.289 146.98 159.241 146.777 159.116C146.574 158.991 146.423 158.797 146.35 158.57C145.373 155.446 142.094 144.937 140.958 140.87C140.951 140.845 140.935 140.822 140.913 140.808C140.89 140.793 140.863 140.787 140.837 140.791C140.811 140.794 140.786 140.808 140.769 140.828C140.752 140.848 140.742 140.874 140.742 140.901C140.799 144.777 140.936 154.667 140.984 158.083L140.989 158.451C140.991 158.7 140.9 158.941 140.733 159.126C140.566 159.311 140.336 159.426 140.088 159.45L137.04 159.727C137.009 159.729 136.978 159.731 136.947 159.731Z" fill="#2F2E41"/>
<path d="M137.569 92.2093C136.625 92.7703 136.061 93.8013 135.737 94.8504C135.137 96.7926 134.775 98.8007 134.661 100.83L134.319 106.907L130.079 123.018C133.754 126.127 135.873 125.42 140.819 122.877C145.766 120.334 146.331 123.725 146.331 123.725L147.32 110.017L148.733 95.0378C148.416 94.6558 148.057 94.3106 147.663 94.0086C146.357 92.9929 144.837 92.2869 143.218 91.9438C141.599 91.6008 139.924 91.6295 138.318 92.0281L137.569 92.2093Z" fill="#8FE1D7"/>
<path d="M136.192 111.023C136.306 111.066 136.417 111.118 136.522 111.178L146.287 106.291L146.449 103.643L150.477 103.365L150.693 109.401L137.644 113.716C137.537 114.173 137.294 114.587 136.947 114.902C136.599 115.218 136.164 115.42 135.699 115.482C135.234 115.544 134.761 115.463 134.343 115.25C133.925 115.037 133.582 114.701 133.359 114.288C133.136 113.875 133.045 113.404 133.096 112.937C133.148 112.471 133.34 112.031 133.648 111.677C133.955 111.322 134.363 111.07 134.818 110.953C135.272 110.836 135.752 110.861 136.192 111.023Z" fill="#FFB8B8"/>
<path d="M148.663 95.1064C151.065 95.9544 151.488 105.141 151.488 105.141C148.662 103.586 145.27 106.13 145.27 106.13C145.27 106.13 144.564 103.728 143.716 100.619C143.46 99.744 143.429 98.8189 143.627 97.9294C143.824 97.0399 144.244 96.2148 144.846 95.531C144.846 95.531 146.26 94.258 148.663 95.1064Z" fill="#8FE1D7"/>
<path d="M145.85 86.1053C145.176 85.5662 144.257 86.546 144.257 86.546L143.718 81.6947C143.718 81.6947 140.349 82.0983 138.193 81.5601C136.037 81.0218 135.7 83.5142 135.7 83.5142C135.589 82.5074 135.566 81.4928 135.633 80.4821C135.767 79.2693 137.519 78.0565 140.619 77.2478C143.718 76.4392 145.335 79.943 145.335 79.943C147.491 81.021 146.524 86.6444 145.85 86.1053Z" fill="#2F2E41"/>
</g>
<defs>
<clipPath id="clip0_31_226">
<rect width="163.848" height="164.338" fill="white" transform="scale(1.00093)"/>
</clipPath>
</defs>
</svg>
