<svg width="306" height="200" viewBox="0 0 306 200" fill="none" xmlns="http://www.w3.org/2000/svg">
<g clip-path="url(#clip0_8_21)">
<path d="M109.247 173.298C110.35 164.423 115.851 155.679 124.315 152.791C120.977 161.926 120.977 171.947 124.317 181.081C125.617 184.599 127.43 188.377 126.207 191.922C125.446 194.128 123.584 195.816 121.502 196.872C119.42 197.927 117.11 198.43 114.829 198.923L114.38 199.295C110.759 191.117 108.143 182.173 109.247 173.298Z" fill="#F0F0F0"/>
<path d="M124.399 152.959C119.47 158.482 116.406 165.417 115.643 172.78C115.451 174.362 115.509 175.965 115.816 177.529C116.164 179.043 116.911 180.436 117.979 181.564C118.954 182.635 120.076 183.618 120.774 184.908C121.121 185.573 121.324 186.305 121.369 187.054C121.413 187.803 121.299 188.554 121.034 189.256C120.418 191.023 119.204 192.463 117.967 193.83C116.595 195.348 115.145 196.903 114.562 198.915C114.491 199.159 114.117 199.035 114.187 198.791C115.202 195.29 118.601 193.302 120.222 190.148C120.978 188.677 121.295 186.969 120.586 185.416C119.966 184.057 118.811 183.043 117.814 181.966C116.756 180.882 115.979 179.554 115.552 178.1C115.166 176.557 115.046 174.959 115.197 173.376C115.48 169.805 116.322 166.301 117.693 162.992C119.236 159.207 121.416 155.713 124.138 152.663C124.306 152.474 124.566 152.771 124.399 152.959Z" fill="white"/>
<path d="M115.749 170.395C114.531 170.099 113.458 169.38 112.721 168.366C111.985 167.352 111.632 166.109 111.727 164.86C111.747 164.607 112.141 164.626 112.121 164.879C112.03 166.043 112.359 167.2 113.047 168.143C113.735 169.086 114.737 169.752 115.873 170.02C116.12 170.079 115.995 170.453 115.749 170.395Z" fill="white"/>
<path d="M117.413 181.086C119.613 179.772 121.237 177.678 121.961 175.22C122.033 174.976 122.407 175.1 122.336 175.344C121.577 177.9 119.883 180.076 117.591 181.438C117.372 181.567 117.196 181.214 117.413 181.086Z" fill="white"/>
<path d="M119.602 159.58C120.05 159.793 120.543 159.891 121.037 159.866C121.532 159.841 122.013 159.693 122.437 159.436C122.653 159.304 122.829 159.657 122.614 159.788C122.145 160.07 121.613 160.232 121.067 160.261C120.52 160.29 119.975 160.185 119.479 159.954C119.43 159.936 119.39 159.901 119.367 159.855C119.343 159.808 119.339 159.755 119.353 159.705C119.37 159.656 119.405 159.615 119.452 159.591C119.498 159.568 119.552 159.564 119.602 159.58Z" fill="white"/>
<path d="M150.114 168.643C149.981 168.729 149.848 168.816 149.715 168.905C147.932 170.078 146.248 171.393 144.678 172.838C144.555 172.947 144.432 173.06 144.312 173.174C140.568 176.695 137.51 180.881 135.294 185.519C134.414 187.365 133.675 189.276 133.085 191.234C132.27 193.939 131.601 196.936 129.988 199.148C129.822 199.381 129.642 199.603 129.449 199.813H114.868C114.835 199.797 114.802 199.784 114.768 199.767L114.186 199.794C114.21 199.69 114.236 199.584 114.259 199.481C114.273 199.421 114.289 199.361 114.303 199.301C114.313 199.261 114.323 199.221 114.329 199.185C114.333 199.171 114.336 199.158 114.339 199.148C114.346 199.112 114.356 199.078 114.363 199.045C114.509 198.45 114.66 197.854 114.815 197.259C114.815 197.255 114.815 197.255 114.818 197.252C116.013 192.718 117.596 188.243 119.808 184.152C119.875 184.028 119.941 183.902 120.014 183.779C121.022 181.94 122.178 180.187 123.471 178.536C124.182 177.635 124.938 176.77 125.736 175.945C127.803 173.817 130.192 172.027 132.815 170.642C138.045 167.881 144.1 166.823 149.688 168.51C149.831 168.553 149.971 168.596 150.114 168.643Z" fill="#F0F0F0"/>
<path d="M150.081 168.828C142.821 170.27 136.199 173.963 131.157 179.383C130.051 180.53 129.132 181.845 128.435 183.278C127.802 184.696 127.559 186.259 127.734 187.802C127.867 189.245 128.171 190.705 127.951 192.155C127.828 192.895 127.55 193.601 127.134 194.226C126.719 194.852 126.176 195.382 125.541 195.783C123.986 196.823 122.149 197.242 120.339 197.589C118.329 197.974 116.236 198.343 114.558 199.598C114.355 199.751 114.131 199.426 114.334 199.274C117.252 197.09 121.163 197.549 124.356 196.007C125.845 195.287 127.127 194.114 127.496 192.447C127.819 190.99 127.507 189.484 127.359 188.024C127.167 186.521 127.346 184.993 127.881 183.575C128.502 182.111 129.368 180.763 130.442 179.589C132.817 176.908 135.599 174.618 138.686 172.801C142.198 170.708 146.042 169.231 150.051 168.435C150.299 168.385 150.328 168.779 150.081 168.828Z" fill="white"/>
<path d="M132.678 177.542C131.883 176.572 131.459 175.352 131.481 174.099C131.503 172.846 131.97 171.641 132.799 170.701C132.967 170.511 133.27 170.763 133.101 170.953C132.328 171.828 131.894 172.95 131.875 174.117C131.857 175.284 132.256 176.419 133.002 177.317C133.163 177.513 132.838 177.736 132.678 177.542Z" fill="white"/>
<path d="M127.57 187.08C130.117 187.355 132.674 186.661 134.732 185.135C134.936 184.983 135.16 185.307 134.957 185.459C132.812 187.043 130.149 187.76 127.499 187.467C127.247 187.439 127.318 187.052 127.57 187.08Z" fill="white"/>
<path d="M142.265 171.226C142.494 171.666 142.829 172.041 143.239 172.319C143.649 172.597 144.122 172.768 144.615 172.818C144.868 172.843 144.796 173.231 144.544 173.206C144 173.148 143.478 172.958 143.025 172.652C142.571 172.346 142.199 171.934 141.941 171.451C141.913 171.407 141.902 171.355 141.912 171.304C141.921 171.253 141.949 171.207 141.991 171.177C142.034 171.147 142.087 171.136 142.138 171.145C142.19 171.154 142.235 171.184 142.265 171.226Z" fill="white"/>
<path d="M158.395 2.20544C157.778 2.20614 157.186 2.4517 156.749 2.88826C156.313 3.32482 156.067 3.91672 156.066 4.53411V103.003C156.067 103.621 156.313 104.213 156.749 104.649C157.186 105.086 157.778 105.331 158.395 105.332H302.772C303.39 105.331 303.982 105.086 304.418 104.649C304.855 104.213 305.1 103.621 305.101 103.003V4.53411C305.1 3.91673 304.855 3.32484 304.418 2.88829C303.982 2.45174 303.39 2.20616 302.772 2.20544H158.395Z" fill="#E6E6E6"/>
<path d="M161.722 5.5321C161.104 5.5328 160.512 5.77836 160.076 6.21492C159.639 6.65148 159.394 7.24338 159.393 7.86077V99.6766C159.394 100.294 159.639 100.886 160.076 101.322C160.512 101.759 161.104 102.005 161.722 102.005H299.446C300.063 102.005 300.655 101.759 301.092 101.322C301.528 100.886 301.774 100.294 301.774 99.6766V7.86077C301.774 7.24339 301.528 6.6515 301.092 6.21495C300.655 5.7784 300.063 5.53282 299.446 5.5321H161.722Z" fill="white"/>
<path opacity="0.1" d="M288.796 25.6099C285.629 24.3733 282.214 27.4745 281.472 30.7925C280.73 34.1104 281.679 37.5419 281.889 40.9354C282.098 44.3289 281.208 48.2694 278.18 49.8165C274.699 51.5954 270.615 49.2827 266.722 48.9304C264.778 48.7761 262.827 49.1171 261.051 49.9217C259.275 50.7263 257.731 51.9681 256.566 53.5311C253.355 57.9366 253.518 64.3336 249.718 68.2426C246.416 71.639 241.036 72.0812 236.417 71.0309C231.798 69.9806 227.553 67.6989 223.011 66.3538C218.469 65.0087 213.212 64.7278 209.32 67.4276C205.257 70.246 203.449 75.7705 198.989 77.9053C195.835 79.4147 192.102 78.8389 188.727 77.9249C185.352 77.0109 181.948 75.7779 178.464 76.0712C174.98 76.3645 171.348 78.7686 171.072 82.2541L290.653 81.9203C291.196 66.1365 291.739 50.3529 292.282 34.5692C292.4 31.1404 291.992 26.8576 288.796 25.6099Z" fill="#8FE1D7"/>
<path d="M109.83 110.301C109.622 109.753 109.537 109.165 109.58 108.58C109.624 107.994 109.795 107.426 110.082 106.914C110.369 106.402 110.765 105.959 111.241 105.617C111.718 105.274 112.264 105.041 112.84 104.932L114.941 90.8221L120.461 95.77L117.62 108.41C117.738 109.391 117.493 110.382 116.93 111.193C116.367 112.005 115.525 112.583 114.565 112.816C113.605 113.049 112.593 112.922 111.72 112.458C110.847 111.995 110.175 111.227 109.83 110.301Z" fill="#FFB6B6"/>
<path d="M71.31 112.443C71.6685 111.979 71.9207 111.441 72.049 110.868C72.1772 110.296 72.1784 109.702 72.0523 109.129C71.9262 108.555 71.676 108.017 71.3193 107.551C70.9625 107.085 70.508 106.703 69.9876 106.432L72.0716 92.3192L65.3532 95.4524L64.4043 108.373C64.0064 109.278 63.9542 110.297 64.2574 111.237C64.5606 112.177 65.1982 112.974 66.0494 113.476C66.9007 113.977 67.9063 114.149 68.8759 113.959C69.8454 113.769 70.7115 113.229 71.31 112.443Z" fill="#FFB6B6"/>
<path d="M100.84 193.584L107.073 193.583L110.039 169.541L100.839 169.541L100.84 193.584Z" fill="#FFB6B6"/>
<path d="M99.2504 191.549L111.526 191.548H111.526C113.601 191.548 115.591 192.373 117.058 193.84C118.525 195.307 119.349 197.296 119.349 199.371V199.625L99.2507 199.626L99.2504 191.549Z" fill="#2F2E41"/>
<path d="M67.5736 193.584L73.8068 193.583L76.7722 169.541L67.5726 169.541L67.5736 193.584Z" fill="#FFB6B6"/>
<path d="M65.9836 191.549L78.2593 191.548H78.2598C80.3345 191.548 82.3242 192.373 83.7913 193.84C85.2584 195.307 86.0826 197.296 86.0828 199.371V199.625L65.984 199.626L65.9836 191.549Z" fill="#2F2E41"/>
<path d="M96.9079 29.469C103.127 29.469 108.168 24.4277 108.168 18.2089C108.168 11.9901 103.127 6.94885 96.9079 6.94885C90.6891 6.94885 85.6478 11.9901 85.6478 18.2089C85.6478 24.4277 90.6891 29.469 96.9079 29.469Z" fill="#FFB6B6"/>
<path d="M70.2534 99.3875C70.2534 99.3875 70.4191 149.774 69.6148 150.579C68.8105 151.383 65.9554 181.517 65.9554 181.517H75.9354C76.6008 181.517 93.5778 115.875 93.5778 115.875C93.5778 115.875 100.816 151.264 99.6099 153.275C98.4035 155.286 99.3439 181.644 100.012 183.838C100.012 183.838 108.398 186.522 109.202 184.511C110.006 182.5 111.198 155.236 111.198 155.236L113.527 109.993L113.578 98.181L70.2534 99.3875Z" fill="#2F2E41"/>
<path d="M116.5 41.4786H120.98C121.31 41.4785 121.629 41.5904 121.886 41.7959C122.144 42.0015 122.323 42.2884 122.395 42.6096C123.087 45.6711 124.868 54.3492 124.543 61.1837C124.141 69.6287 123.337 82.8995 123.337 84.106C123.337 85.3124 119.315 103.811 119.315 103.811C119.315 103.811 116.55 99.2671 113.509 100.132L114.087 83.7039L114.892 76.8674L113.685 64.8031L116.5 41.4786Z" fill="#E4E4E4"/>
<path d="M87.9478 34.1157C87.9478 34.1157 73.6717 38.8646 72.0631 42.8861C70.4546 46.9075 78.2642 76.0613 78.2642 76.0613C78.2642 76.0613 75.2702 89.368 71.2588 102.001C69.4333 107.751 86.8547 102.828 94.8976 100.013C99.8813 98.2849 109.099 100.939 114.288 99.9906C114.288 99.9906 115.093 89.1327 114.288 87.122C113.484 85.1113 111.473 86.3177 112.68 83.5027C113.886 80.6877 113.484 80.2855 113.082 79.0791C112.68 77.8727 113.886 76.2641 113.886 74.6555C113.886 73.0469 113.484 69.4276 113.484 69.4276C113.484 69.4276 124.342 44.0925 121.929 41.6796C119.516 39.2668 107.234 34.6176 107.234 34.6176C107.234 34.6176 107.539 34.8106 87.9478 34.1157Z" fill="#E4E4E4"/>
<path d="M74.677 41.4786L73.2487 42.1927C72.6928 42.4707 72.2087 42.8736 71.8344 43.3698C71.4601 43.866 71.2058 44.4421 71.0912 45.053L65.4276 75.2588L64.2212 103.811C64.2212 103.811 71.0577 101.8 73.0684 103.811C73.0684 103.811 71.0577 97.7789 72.2641 95.7682C73.4705 93.7574 73.4705 90.9424 73.4705 90.9424C73.4705 90.9424 72.6662 90.9424 74.6769 88.9317C76.6877 86.921 77.0898 86.1167 76.6877 85.7146C76.2856 85.3124 75.8834 81.6931 75.8834 81.291C75.8834 80.8888 79.9048 53.9451 79.9048 53.9451L74.677 41.4786Z" fill="#E4E4E4"/>
<path d="M170.5 81.8657C170.323 81.8657 170.154 81.7956 170.029 81.6709C169.905 81.5461 169.834 81.3769 169.834 81.2004C169.834 81.0239 169.905 80.8547 170.029 80.7299C170.154 80.6052 170.323 80.5351 170.5 80.5351C201.243 80.5351 230.563 74.3794 253.058 63.202C274.151 52.7207 287.593 38.5076 289.936 24.2069C289.95 24.1205 289.981 24.0377 290.026 23.9633C290.072 23.8888 290.133 23.8242 290.203 23.773C290.274 23.7218 290.355 23.6851 290.44 23.6649C290.525 23.6448 290.613 23.6417 290.699 23.6557C290.786 23.6697 290.868 23.7006 290.943 23.7466C291.017 23.7926 291.082 23.8529 291.133 23.9238C291.184 23.9948 291.221 24.0752 291.241 24.1603C291.261 24.2455 291.264 24.3337 291.249 24.42L291.249 24.4219C290.032 31.8505 286.081 39.1375 279.507 46.0807C273.024 52.9284 264.324 59.0899 253.65 64.3936C230.975 75.6607 201.445 81.8657 170.5 81.8657Z" fill="#8FE1D7"/>
<path d="M296.785 82.0001H169.706V19.2166H170.371V81.3348H296.785V82.0001Z" fill="#E6E6E6"/>
<path d="M86.295 22.0022C85.7803 20.739 85.6975 19.3411 86.0595 18.026C86.9793 20.4656 88.8067 19.7209 89.7378 18.5768C90.9056 17.1422 90.5693 13.8289 92.4131 13.6806C94.2568 13.5324 96.1005 13.8813 97.9173 14.2286C97.6162 13.7132 97.3152 13.1978 97.0143 12.6823C98.3284 12.7639 99.6426 12.8454 100.957 12.927C100.566 12.2832 100.174 11.6393 99.7829 10.9956C101.57 11.6234 103.204 12.6206 104.579 13.9222C105.955 15.2238 107.041 16.8007 107.766 18.55C108.447 17.4466 108.872 16.204 109.008 14.9142C109.144 13.6244 108.989 12.3205 108.553 11.0991C108.116 9.87767 107.411 8.77004 106.489 7.85827C105.566 6.9465 104.451 6.25394 103.224 5.83192C103.743 5.15172 104.261 4.47155 104.779 3.79138L94.2268 2.75007C94.2005 2.24144 94.2986 1.73408 94.5126 1.2719C94.7266 0.809716 95.05 0.406658 95.4548 0.097618C94.0729 -0.214424 92.6073 0.253668 91.4331 1.04607C90.2589 1.83848 89.325 2.93121 88.4068 4.00986C87.0165 5.6431 85.6094 7.30191 84.6993 9.24404C83.7658 11.3116 83.4208 13.5966 83.7024 15.8476C83.9839 18.0986 84.881 20.2283 86.295 22.0022ZM86.4225 17.0472L86.4227 17.0466L86.4333 17.0447L86.4225 17.0472Z" fill="#2F2E41"/>
<path d="M215.729 200H0.396054C0.2912 200 0.190747 199.958 0.116712 199.884C0.0426761 199.809 0.00109863 199.709 0.00109863 199.604C0.00109863 199.499 0.0426761 199.398 0.116712 199.324C0.190747 199.25 0.2912 199.208 0.396054 199.208H215.729C215.834 199.208 215.935 199.25 216.009 199.324C216.083 199.398 216.124 199.499 216.124 199.604C216.124 199.709 216.083 199.809 216.009 199.884C215.935 199.958 215.834 200 215.729 200Z" fill="#CACACA"/>
</g>
<defs>
<clipPath id="clip0_8_21">
<rect width="305.101" height="200" fill="white"/>
</clipPath>
</defs>
</svg>
