<svg width="25" height="23" viewBox="0 0 25 23" fill="none" xmlns="http://www.w3.org/2000/svg">
<path d="M12.1685 5.9668L4.167 13.7635V22.1785C4.167 22.3964 4.24016 22.6053 4.37038 22.7594C4.5006 22.9134 4.67722 23 4.86139 23L9.72473 22.9851C9.90829 22.984 10.084 22.897 10.2135 22.743C10.343 22.5891 10.4156 22.3808 10.4156 22.1636V17.2494C10.4156 17.0315 10.4888 16.8225 10.619 16.6685C10.7493 16.5144 10.9259 16.4278 11.11 16.4278H13.8876C14.0718 16.4278 14.2484 16.5144 14.3786 16.6685C14.5088 16.8225 14.582 17.0315 14.582 17.2494V22.16C14.5817 22.2681 14.5995 22.3752 14.6342 22.4752C14.669 22.5751 14.7201 22.666 14.7846 22.7426C14.8491 22.8191 14.9258 22.8799 15.0101 22.9213C15.0945 22.9627 15.185 22.9841 15.2764 22.9841L20.138 23C20.3222 23 20.4988 22.9134 20.629 22.7594C20.7592 22.6053 20.8324 22.3964 20.8324 22.1785V13.7579L12.8326 5.9668C12.7385 5.87712 12.6214 5.82821 12.5006 5.82821C12.3798 5.82821 12.2626 5.87712 12.1685 5.9668ZM24.8078 11.2661L21.1796 7.72794V0.61614C21.1796 0.45273 21.1247 0.296012 21.027 0.180463C20.9294 0.0649147 20.7969 0 20.6588 0H18.2284C18.0903 0 17.9578 0.0649147 17.8602 0.180463C17.7625 0.296012 17.7076 0.45273 17.7076 0.61614V4.3443L13.8221 0.562228C13.4492 0.199208 12.9813 0.000725682 12.4984 0.000725682C12.0155 0.000725682 11.5476 0.199208 11.1747 0.562228L0.189004 11.2661C0.136268 11.3177 0.0926378 11.381 0.0606055 11.4526C0.0285733 11.5241 0.00876702 11.6024 0.00231847 11.683C-0.00413009 11.7635 0.00290544 11.8448 0.0230231 11.9222C0.0431407 11.9996 0.0759461 12.0715 0.119565 12.1339L1.22625 13.7255C1.26975 13.7881 1.32326 13.8399 1.3837 13.878C1.44415 13.9161 1.51035 13.9397 1.57852 13.9475C1.64669 13.9553 1.71548 13.947 1.78096 13.9233C1.84645 13.8996 1.90733 13.8608 1.96013 13.8092L12.1685 3.86166C12.2626 3.77197 12.3798 3.72306 12.5006 3.72306C12.6214 3.72306 12.7385 3.77197 12.8326 3.86166L23.0414 13.8092C23.0941 13.8608 23.1549 13.8997 23.2203 13.9235C23.2857 13.9473 23.3544 13.9556 23.4225 13.948C23.4906 13.9403 23.5568 13.9169 23.6173 13.879C23.6777 13.8411 23.7313 13.7895 23.7749 13.7271L24.8815 12.1354C24.9251 12.0727 24.9578 12.0004 24.9777 11.9227C24.9975 11.845 25.0043 11.7634 24.9974 11.6826C24.9905 11.6018 24.9703 11.5235 24.9377 11.452C24.9052 11.3805 24.861 11.3173 24.8078 11.2661Z" fill="#29A899"/>
</svg>
